<?xml version="1.0" encoding="UTF-8"?>
<svg xmlns="http://www.w3.org/2000/svg" viewBox="0 0 512 512" width="512" height="512">
  <defs>
    <clipPath id="squareClip">
      <rect x="0" y="0" width="512" height="512"/>
    </clipPath>
    <filter id="glow" x="-30%" y="-30%" width="160%" height="160%">
      <feGaussianBlur stdDeviation="4" result="blur"/>
      <feMerge>
        <feMergeNode in="blur"/>
        <feMergeNode in="SourceGraphic"/>
      </feMerge>
    </filter>
    <filter id="nodeGlow" x="-200%" y="-200%" width="500%" height="500%">
      <feGaussianBlur stdDeviation="2.5" result="blur"/>
      <feMerge>
        <feMergeNode in="blur"/>
        <feMergeNode in="SourceGraphic"/>
      </feMerge>
    </filter>
  </defs>

  <g clip-path="url(#squareClip)">
    <rect x="0" y="0" width="512" height="512" fill="#0d1320"/>
    <g opacity="0.95">
      <line x1="-23.3" y1="5.4" x2="69.0" y2="-16.2" stroke="#d8dde6" stroke-width="2.0" stroke-opacity="0.543"/>
      <line x1="-23.3" y1="5.4" x2="4.4" y2="69.8" stroke="#d8dde6" stroke-width="2.0" stroke-opacity="0.681"/>
      <line x1="-23.3" y1="5.4" x2="15.8" y2="114.3" stroke="#d8dde6" stroke-width="2.0" stroke-opacity="0.428"/>
      <line x1="-23.3" y1="5.4" x2="57.7" y2="28.2" stroke="#d8dde6" stroke-width="2.0" stroke-opacity="0.603"/>
      <line x1="369.8" y1="268.3" x2="407.1" y2="266.5" stroke="#d8dde6" stroke-width="2.0" stroke-opacity="0.863"/>
      <line x1="369.8" y1="268.3" x2="286.7" y2="325.6" stroke="#d8dde6" stroke-width="2.0" stroke-opacity="0.509"/>
      <line x1="369.8" y1="268.3" x2="372.3" y2="363.7" stroke="#d8dde6" stroke-width="2.0" stroke-opacity="0.540"/>
      <line x1="369.8" y1="268.3" x2="331.6" y2="162.6" stroke="#d8dde6" stroke-width="2.0" stroke-opacity="0.446"/>
      <line x1="369.8" y1="268.3" x2="442.8" y2="344.8" stroke="#d8dde6" stroke-width="2.0" stroke-opacity="0.483"/>
      <line x1="369.8" y1="268.3" x2="260.0" y2="294.3" stroke="#d8dde6" stroke-width="2.0" stroke-opacity="0.443"/>
      <line x1="369.8" y1="268.3" x2="287.4" y2="243.2" stroke="#d8dde6" stroke-width="2.0" stroke-opacity="0.591"/>
      <line x1="369.8" y1="268.3" x2="426.6" y2="205.8" stroke="#d8dde6" stroke-width="2.0" stroke-opacity="0.601"/>
      <line x1="369.8" y1="268.3" x2="278.0" y2="193.7" stroke="#d8dde6" stroke-width="2.0" stroke-opacity="0.413"/>
      <line x1="369.8" y1="268.3" x2="404.8" y2="326.8" stroke="#d8dde6" stroke-width="2.0" stroke-opacity="0.691"/>
      <line x1="369.8" y1="268.3" x2="325.5" y2="309.9" stroke="#d8dde6" stroke-width="2.0" stroke-opacity="0.732"/>
      <line x1="369.8" y1="268.3" x2="445.9" y2="246.0" stroke="#d8dde6" stroke-width="2.0" stroke-opacity="0.630"/>
      <line x1="369.8" y1="268.3" x2="383.3" y2="235.3" stroke="#d8dde6" stroke-width="2.0" stroke-opacity="0.872"/>
      <line x1="236.7" y1="107.2" x2="180.5" y2="137.7" stroke="#d8dde6" stroke-width="2.0" stroke-opacity="0.715"/>
      <line x1="236.7" y1="107.2" x2="174.2" y2="213.3" stroke="#d8dde6" stroke-width="2.0" stroke-opacity="0.386"/>
      <line x1="236.7" y1="107.2" x2="214.1" y2="238.1" stroke="#d8dde6" stroke-width="2.0" stroke-opacity="0.332"/>
      <line x1="236.7" y1="107.2" x2="173.8" y2="49.4" stroke="#d8dde6" stroke-width="2.0" stroke-opacity="0.595"/>
      <line x1="236.7" y1="107.2" x2="331.6" y2="162.6" stroke="#d8dde6" stroke-width="2.0" stroke-opacity="0.459"/>
      <line x1="236.7" y1="107.2" x2="265.2" y2="157.6" stroke="#d8dde6" stroke-width="2.0" stroke-opacity="0.748"/>
      <line x1="236.7" y1="107.2" x2="285.6" y2="148.7" stroke="#d8dde6" stroke-width="2.0" stroke-opacity="0.714"/>
      <line x1="236.7" y1="107.2" x2="196.6" y2="90.5" stroke="#d8dde6" stroke-width="2.0" stroke-opacity="0.829"/>
      <line x1="236.7" y1="107.2" x2="243.1" y2="67.7" stroke="#d8dde6" stroke-width="2.0" stroke-opacity="0.848"/>
      <line x1="236.7" y1="107.2" x2="219.6" y2="163.7" stroke="#d8dde6" stroke-width="2.0" stroke-opacity="0.742"/>
      <line x1="236.7" y1="107.2" x2="139.0" y2="21.8" stroke="#d8dde6" stroke-width="2.0" stroke-opacity="0.349"/>
      <line x1="236.7" y1="107.2" x2="151.6" y2="118.5" stroke="#d8dde6" stroke-width="2.0" stroke-opacity="0.593"/>
      <line x1="236.7" y1="107.2" x2="278.0" y2="193.7" stroke="#d8dde6" stroke-width="2.0" stroke-opacity="0.538"/>
      <line x1="387.5" y1="117.5" x2="472.1" y2="79.1" stroke="#d8dde6" stroke-width="2.0" stroke-opacity="0.554"/>
      <line x1="387.5" y1="117.5" x2="405.8" y2="12.6" stroke="#d8dde6" stroke-width="2.0" stroke-opacity="0.479"/>
      <line x1="387.5" y1="117.5" x2="492.3" y2="154.4" stroke="#d8dde6" stroke-width="2.0" stroke-opacity="0.453"/>
      <line x1="387.5" y1="117.5" x2="331.6" y2="162.6" stroke="#d8dde6" stroke-width="2.0" stroke-opacity="0.671"/>
      <line x1="387.5" y1="117.5" x2="265.2" y2="157.6" stroke="#d8dde6" stroke-width="2.0" stroke-opacity="0.355"/>
      <line x1="387.5" y1="117.5" x2="285.6" y2="148.7" stroke="#d8dde6" stroke-width="2.0" stroke-opacity="0.478"/>
      <line x1="387.5" y1="117.5" x2="444.8" y2="49.5" stroke="#d8dde6" stroke-width="2.0" stroke-opacity="0.576"/>
      <line x1="387.5" y1="117.5" x2="426.6" y2="205.8" stroke="#d8dde6" stroke-width="2.0" stroke-opacity="0.533"/>
      <line x1="387.5" y1="117.5" x2="278.0" y2="193.7" stroke="#d8dde6" stroke-width="2.0" stroke-opacity="0.329"/>
      <line x1="387.5" y1="117.5" x2="383.3" y2="235.3" stroke="#d8dde6" stroke-width="2.0" stroke-opacity="0.415"/>
      <line x1="407.1" y1="266.5" x2="286.7" y2="325.6" stroke="#d8dde6" stroke-width="2.0" stroke-opacity="0.325"/>
      <line x1="407.1" y1="266.5" x2="522.5" y2="327.1" stroke="#d8dde6" stroke-width="2.0" stroke-opacity="0.345"/>
      <line x1="407.1" y1="266.5" x2="372.3" y2="363.7" stroke="#d8dde6" stroke-width="2.0" stroke-opacity="0.497"/>
      <line x1="407.1" y1="266.5" x2="331.6" y2="162.6" stroke="#d8dde6" stroke-width="2.0" stroke-opacity="0.357"/>
      <line x1="407.1" y1="266.5" x2="442.8" y2="344.8" stroke="#d8dde6" stroke-width="2.0" stroke-opacity="0.592"/>
      <line x1="407.1" y1="266.5" x2="287.4" y2="243.2" stroke="#d8dde6" stroke-width="2.0" stroke-opacity="0.393"/>
      <line x1="407.1" y1="266.5" x2="426.6" y2="205.8" stroke="#d8dde6" stroke-width="2.0" stroke-opacity="0.715"/>
      <line x1="407.1" y1="266.5" x2="404.8" y2="326.8" stroke="#d8dde6" stroke-width="2.0" stroke-opacity="0.735"/>
      <line x1="407.1" y1="266.5" x2="325.5" y2="309.9" stroke="#d8dde6" stroke-width="2.0" stroke-opacity="0.557"/>
      <line x1="407.1" y1="266.5" x2="445.9" y2="246.0" stroke="#d8dde6" stroke-width="2.0" stroke-opacity="0.826"/>
      <line x1="407.1" y1="266.5" x2="383.3" y2="235.3" stroke="#d8dde6" stroke-width="2.0" stroke-opacity="0.852"/>
      <line x1="180.5" y1="137.7" x2="58.5" y2="136.4" stroke="#d8dde6" stroke-width="2.0" stroke-opacity="0.392"/>
      <line x1="180.5" y1="137.7" x2="174.2" y2="213.3" stroke="#d8dde6" stroke-width="2.0" stroke-opacity="0.649"/>
      <line x1="180.5" y1="137.7" x2="214.1" y2="238.1" stroke="#d8dde6" stroke-width="2.0" stroke-opacity="0.482"/>
      <line x1="180.5" y1="137.7" x2="173.8" y2="49.4" stroke="#d8dde6" stroke-width="2.0" stroke-opacity="0.578"/>
      <line x1="180.5" y1="137.7" x2="265.2" y2="157.6" stroke="#d8dde6" stroke-width="2.0" stroke-opacity="0.587"/>
      <line x1="180.5" y1="137.7" x2="285.6" y2="148.7" stroke="#d8dde6" stroke-width="2.0" stroke-opacity="0.483"/>
      <line x1="180.5" y1="137.7" x2="196.6" y2="90.5" stroke="#d8dde6" stroke-width="2.0" stroke-opacity="0.793"/>
      <line x1="180.5" y1="137.7" x2="73.1" y2="113.4" stroke="#d8dde6" stroke-width="2.0" stroke-opacity="0.458"/>
      <line x1="180.5" y1="137.7" x2="243.1" y2="67.7" stroke="#d8dde6" stroke-width="2.0" stroke-opacity="0.548"/>
      <line x1="180.5" y1="137.7" x2="176.7" y2="242.8" stroke="#d8dde6" stroke-width="2.0" stroke-opacity="0.486"/>
      <line x1="180.5" y1="137.7" x2="219.6" y2="163.7" stroke="#d8dde6" stroke-width="2.0" stroke-opacity="0.809"/>
      <line x1="180.5" y1="137.7" x2="139.0" y2="21.8" stroke="#d8dde6" stroke-width="2.0" stroke-opacity="0.386"/>
      <line x1="180.5" y1="137.7" x2="151.6" y2="118.5" stroke="#d8dde6" stroke-width="2.0" stroke-opacity="0.877"/>
      <line x1="180.5" y1="137.7" x2="278.0" y2="193.7" stroke="#d8dde6" stroke-width="2.0" stroke-opacity="0.445"/>
      <line x1="139.5" y1="529.4" x2="175.9" y2="422.8" stroke="#d8dde6" stroke-width="2.0" stroke-opacity="0.444"/>
      <line x1="139.5" y1="529.4" x2="174.2" y2="496.4" stroke="#d8dde6" stroke-width="2.0" stroke-opacity="0.804"/>
      <line x1="139.5" y1="529.4" x2="201.1" y2="527.5" stroke="#d8dde6" stroke-width="2.0" stroke-opacity="0.728"/>
      <line x1="139.5" y1="529.4" x2="137.7" y2="475.8" stroke="#d8dde6" stroke-width="2.0" stroke-opacity="0.772"/>
      <line x1="139.5" y1="529.4" x2="99.6" y2="529.8" stroke="#d8dde6" stroke-width="2.0" stroke-opacity="0.848"/>
      <line x1="472.1" y1="79.1" x2="405.8" y2="12.6" stroke="#d8dde6" stroke-width="2.0" stroke-opacity="0.548"/>
      <line x1="472.1" y1="79.1" x2="443.4" y2="-7.1" stroke="#d8dde6" stroke-width="2.0" stroke-opacity="0.565"/>
      <line x1="472.1" y1="79.1" x2="492.3" y2="154.4" stroke="#d8dde6" stroke-width="2.0" stroke-opacity="0.637"/>
      <line x1="472.1" y1="79.1" x2="444.8" y2="49.5" stroke="#d8dde6" stroke-width="2.0" stroke-opacity="0.847"/>
      <line x1="472.1" y1="79.1" x2="426.6" y2="205.8" stroke="#d8dde6" stroke-width="2.0" stroke-opacity="0.323"/>
      <line x1="58.5" y1="136.4" x2="73.1" y2="113.4" stroke="#d8dde6" stroke-width="2.0" stroke-opacity="0.918"/>
      <line x1="58.5" y1="136.4" x2="4.4" y2="69.8" stroke="#d8dde6" stroke-width="2.0" stroke-opacity="0.593"/>
      <line x1="58.5" y1="136.4" x2="15.8" y2="114.3" stroke="#d8dde6" stroke-width="2.0" stroke-opacity="0.803"/>
      <line x1="58.5" y1="136.4" x2="151.6" y2="118.5" stroke="#d8dde6" stroke-width="2.0" stroke-opacity="0.543"/>
      <line x1="58.5" y1="136.4" x2="57.7" y2="28.2" stroke="#d8dde6" stroke-width="2.0" stroke-opacity="0.469"/>
      <line x1="405.8" y1="12.6" x2="443.4" y2="-7.1" stroke="#d8dde6" stroke-width="2.0" stroke-opacity="0.834"/>
      <line x1="405.8" y1="12.6" x2="444.8" y2="49.5" stroke="#d8dde6" stroke-width="2.0" stroke-opacity="0.771"/>
      <line x1="286.7" y1="325.6" x2="214.1" y2="238.1" stroke="#d8dde6" stroke-width="2.0" stroke-opacity="0.438"/>
      <line x1="286.7" y1="325.6" x2="372.3" y2="363.7" stroke="#d8dde6" stroke-width="2.0" stroke-opacity="0.550"/>
      <line x1="286.7" y1="325.6" x2="283.8" y2="438.2" stroke="#d8dde6" stroke-width="2.0" stroke-opacity="0.444"/>
      <line x1="286.7" y1="325.6" x2="284.3" y2="402.1" stroke="#d8dde6" stroke-width="2.0" stroke-opacity="0.645"/>
      <line x1="286.7" y1="325.6" x2="216.0" y2="337.4" stroke="#d8dde6" stroke-width="2.0" stroke-opacity="0.671"/>
      <line x1="286.7" y1="325.6" x2="260.0" y2="294.3" stroke="#d8dde6" stroke-width="2.0" stroke-opacity="0.841"/>
      <line x1="286.7" y1="325.6" x2="287.4" y2="243.2" stroke="#d8dde6" stroke-width="2.0" stroke-opacity="0.613"/>
      <line x1="286.7" y1="325.6" x2="255.4" y2="388.9" stroke="#d8dde6" stroke-width="2.0" stroke-opacity="0.678"/>
      <line x1="286.7" y1="325.6" x2="219.9" y2="369.1" stroke="#d8dde6" stroke-width="2.0" stroke-opacity="0.627"/>
      <line x1="286.7" y1="325.6" x2="278.0" y2="193.7" stroke="#d8dde6" stroke-width="2.0" stroke-opacity="0.336"/>
      <line x1="286.7" y1="325.6" x2="404.8" y2="326.8" stroke="#d8dde6" stroke-width="2.0" stroke-opacity="0.414"/>
      <line x1="286.7" y1="325.6" x2="325.5" y2="309.9" stroke="#d8dde6" stroke-width="2.0" stroke-opacity="0.838"/>
      <line x1="286.7" y1="325.6" x2="383.3" y2="235.3" stroke="#d8dde6" stroke-width="2.0" stroke-opacity="0.336"/>
      <line x1="522.5" y1="327.1" x2="442.8" y2="344.8" stroke="#d8dde6" stroke-width="2.0" stroke-opacity="0.616"/>
      <line x1="522.5" y1="327.1" x2="509.6" y2="446.7" stroke="#d8dde6" stroke-width="2.0" stroke-opacity="0.402"/>
      <line x1="522.5" y1="327.1" x2="462.8" y2="390.9" stroke="#d8dde6" stroke-width="2.0" stroke-opacity="0.584"/>
      <line x1="522.5" y1="327.1" x2="443.3" y2="413.1" stroke="#d8dde6" stroke-width="2.0" stroke-opacity="0.420"/>
      <line x1="522.5" y1="327.1" x2="534.0" y2="451.1" stroke="#d8dde6" stroke-width="2.0" stroke-opacity="0.379"/>
      <line x1="522.5" y1="327.1" x2="404.8" y2="326.8" stroke="#d8dde6" stroke-width="2.0" stroke-opacity="0.416"/>
      <line x1="522.5" y1="327.1" x2="445.9" y2="246.0" stroke="#d8dde6" stroke-width="2.0" stroke-opacity="0.450"/>
      <line x1="443.4" y1="-7.1" x2="444.8" y2="49.5" stroke="#d8dde6" stroke-width="2.0" stroke-opacity="0.755"/>
      <line x1="174.2" y1="213.3" x2="214.1" y2="238.1" stroke="#d8dde6" stroke-width="2.0" stroke-opacity="0.809"/>
      <line x1="174.2" y1="213.3" x2="265.2" y2="157.6" stroke="#d8dde6" stroke-width="2.0" stroke-opacity="0.477"/>
      <line x1="174.2" y1="213.3" x2="216.0" y2="337.4" stroke="#d8dde6" stroke-width="2.0" stroke-opacity="0.342"/>
      <line x1="174.2" y1="213.3" x2="285.6" y2="148.7" stroke="#d8dde6" stroke-width="2.0" stroke-opacity="0.355"/>
      <line x1="174.2" y1="213.3" x2="260.0" y2="294.3" stroke="#d8dde6" stroke-width="2.0" stroke-opacity="0.415"/>
      <line x1="174.2" y1="213.3" x2="196.6" y2="90.5" stroke="#d8dde6" stroke-width="2.0" stroke-opacity="0.377"/>
      <line x1="174.2" y1="213.3" x2="101.4" y2="304.1" stroke="#d8dde6" stroke-width="2.0" stroke-opacity="0.424"/>
      <line x1="174.2" y1="213.3" x2="287.4" y2="243.2" stroke="#d8dde6" stroke-width="2.0" stroke-opacity="0.419"/>
      <line x1="174.2" y1="213.3" x2="137.4" y2="271.6" stroke="#d8dde6" stroke-width="2.0" stroke-opacity="0.687"/>
      <line x1="174.2" y1="213.3" x2="176.7" y2="242.8" stroke="#d8dde6" stroke-width="2.0" stroke-opacity="0.905"/>
      <line x1="174.2" y1="213.3" x2="219.6" y2="163.7" stroke="#d8dde6" stroke-width="2.0" stroke-opacity="0.696"/>
      <line x1="174.2" y1="213.3" x2="151.6" y2="118.5" stroke="#d8dde6" stroke-width="2.0" stroke-opacity="0.529"/>
      <line x1="174.2" y1="213.3" x2="278.0" y2="193.7" stroke="#d8dde6" stroke-width="2.0" stroke-opacity="0.483"/>
      <line x1="20.4" y1="409.3" x2="-21.8" y2="324.0" stroke="#d8dde6" stroke-width="2.0" stroke-opacity="0.541"/>
      <line x1="20.4" y1="409.3" x2="101.4" y2="304.1" stroke="#d8dde6" stroke-width="2.0" stroke-opacity="0.332"/>
      <line x1="20.4" y1="409.3" x2="137.7" y2="475.8" stroke="#d8dde6" stroke-width="2.0" stroke-opacity="0.321"/>
      <line x1="20.4" y1="409.3" x2="62.9" y2="366.6" stroke="#d8dde6" stroke-width="2.0" stroke-opacity="0.735"/>
      <line x1="214.1" y1="238.1" x2="265.2" y2="157.6" stroke="#d8dde6" stroke-width="2.0" stroke-opacity="0.541"/>
      <line x1="214.1" y1="238.1" x2="216.0" y2="337.4" stroke="#d8dde6" stroke-width="2.0" stroke-opacity="0.518"/>
      <line x1="214.1" y1="238.1" x2="285.6" y2="148.7" stroke="#d8dde6" stroke-width="2.0" stroke-opacity="0.434"/>
      <line x1="214.1" y1="238.1" x2="260.0" y2="294.3" stroke="#d8dde6" stroke-width="2.0" stroke-opacity="0.667"/>
      <line x1="214.1" y1="238.1" x2="101.4" y2="304.1" stroke="#d8dde6" stroke-width="2.0" stroke-opacity="0.345"/>
      <line x1="214.1" y1="238.1" x2="287.4" y2="243.2" stroke="#d8dde6" stroke-width="2.0" stroke-opacity="0.662"/>
      <line x1="214.1" y1="238.1" x2="137.4" y2="271.6" stroke="#d8dde6" stroke-width="2.0" stroke-opacity="0.605"/>
      <line x1="214.1" y1="238.1" x2="176.7" y2="242.8" stroke="#d8dde6" stroke-width="2.0" stroke-opacity="0.861"/>
      <line x1="214.1" y1="238.1" x2="219.6" y2="163.7" stroke="#d8dde6" stroke-width="2.0" stroke-opacity="0.655"/>
      <line x1="214.1" y1="238.1" x2="219.9" y2="369.1" stroke="#d8dde6" stroke-width="2.0" stroke-opacity="0.342"/>
      <line x1="214.1" y1="238.1" x2="151.6" y2="118.5" stroke="#d8dde6" stroke-width="2.0" stroke-opacity="0.320"/>
      <line x1="214.1" y1="238.1" x2="278.0" y2="193.7" stroke="#d8dde6" stroke-width="2.0" stroke-opacity="0.638"/>
      <line x1="214.1" y1="238.1" x2="325.5" y2="309.9" stroke="#d8dde6" stroke-width="2.0" stroke-opacity="0.334"/>
      <line x1="372.3" y1="363.7" x2="361.4" y2="497.0" stroke="#d8dde6" stroke-width="2.0" stroke-opacity="0.327"/>
      <line x1="372.3" y1="363.7" x2="442.8" y2="344.8" stroke="#d8dde6" stroke-width="2.0" stroke-opacity="0.664"/>
      <line x1="372.3" y1="363.7" x2="283.8" y2="438.2" stroke="#d8dde6" stroke-width="2.0" stroke-opacity="0.427"/>
      <line x1="372.3" y1="363.7" x2="284.3" y2="402.1" stroke="#d8dde6" stroke-width="2.0" stroke-opacity="0.537"/>
      <line x1="372.3" y1="363.7" x2="260.0" y2="294.3" stroke="#d8dde6" stroke-width="2.0" stroke-opacity="0.336"/>
      <line x1="372.3" y1="363.7" x2="462.8" y2="390.9" stroke="#d8dde6" stroke-width="2.0" stroke-opacity="0.545"/>
      <line x1="372.3" y1="363.7" x2="255.4" y2="388.9" stroke="#d8dde6" stroke-width="2.0" stroke-opacity="0.406"/>
      <line x1="372.3" y1="363.7" x2="443.3" y2="413.1" stroke="#d8dde6" stroke-width="2.0" stroke-opacity="0.590"/>
      <line x1="372.3" y1="363.7" x2="318.8" y2="459.6" stroke="#d8dde6" stroke-width="2.0" stroke-opacity="0.460"/>
      <line x1="372.3" y1="363.7" x2="418.6" y2="444.1" stroke="#d8dde6" stroke-width="2.0" stroke-opacity="0.555"/>
      <line x1="372.3" y1="363.7" x2="404.8" y2="326.8" stroke="#d8dde6" stroke-width="2.0" stroke-opacity="0.797"/>
      <line x1="372.3" y1="363.7" x2="325.5" y2="309.9" stroke="#d8dde6" stroke-width="2.0" stroke-opacity="0.674"/>
      <line x1="372.3" y1="363.7" x2="383.3" y2="235.3" stroke="#d8dde6" stroke-width="2.0" stroke-opacity="0.354"/>
      <line x1="173.8" y1="49.4" x2="196.6" y2="90.5" stroke="#d8dde6" stroke-width="2.0" stroke-opacity="0.809"/>
      <line x1="173.8" y1="49.4" x2="73.1" y2="113.4" stroke="#d8dde6" stroke-width="2.0" stroke-opacity="0.407"/>
      <line x1="173.8" y1="49.4" x2="243.1" y2="67.7" stroke="#d8dde6" stroke-width="2.0" stroke-opacity="0.672"/>
      <line x1="173.8" y1="49.4" x2="69.0" y2="-16.2" stroke="#d8dde6" stroke-width="2.0" stroke-opacity="0.383"/>
      <line x1="173.8" y1="49.4" x2="219.6" y2="163.7" stroke="#d8dde6" stroke-width="2.0" stroke-opacity="0.386"/>
      <line x1="173.8" y1="49.4" x2="139.0" y2="21.8" stroke="#d8dde6" stroke-width="2.0" stroke-opacity="0.823"/>
      <line x1="173.8" y1="49.4" x2="151.6" y2="118.5" stroke="#d8dde6" stroke-width="2.0" stroke-opacity="0.667"/>
      <line x1="173.8" y1="49.4" x2="57.7" y2="28.2" stroke="#d8dde6" stroke-width="2.0" stroke-opacity="0.414"/>
      <line x1="492.3" y1="154.4" x2="444.8" y2="49.5" stroke="#d8dde6" stroke-width="2.0" stroke-opacity="0.431"/>
      <line x1="492.3" y1="154.4" x2="426.6" y2="205.8" stroke="#d8dde6" stroke-width="2.0" stroke-opacity="0.607"/>
      <line x1="492.3" y1="154.4" x2="445.9" y2="246.0" stroke="#d8dde6" stroke-width="2.0" stroke-opacity="0.499"/>
      <line x1="331.6" y1="162.6" x2="265.2" y2="157.6" stroke="#d8dde6" stroke-width="2.0" stroke-opacity="0.700"/>
      <line x1="331.6" y1="162.6" x2="285.6" y2="148.7" stroke="#d8dde6" stroke-width="2.0" stroke-opacity="0.803"/>
      <line x1="331.6" y1="162.6" x2="287.4" y2="243.2" stroke="#d8dde6" stroke-width="2.0" stroke-opacity="0.559"/>
      <line x1="331.6" y1="162.6" x2="243.1" y2="67.7" stroke="#d8dde6" stroke-width="2.0" stroke-opacity="0.349"/>
      <line x1="331.6" y1="162.6" x2="426.6" y2="205.8" stroke="#d8dde6" stroke-width="2.0" stroke-opacity="0.490"/>
      <line x1="331.6" y1="162.6" x2="219.6" y2="163.7" stroke="#d8dde6" stroke-width="2.0" stroke-opacity="0.447"/>
      <line x1="331.6" y1="162.6" x2="278.0" y2="193.7" stroke="#d8dde6" stroke-width="2.0" stroke-opacity="0.726"/>
      <line x1="331.6" y1="162.6" x2="383.3" y2="235.3" stroke="#d8dde6" stroke-width="2.0" stroke-opacity="0.574"/>
      <line x1="361.4" y1="497.0" x2="479.7" y2="519.4" stroke="#d8dde6" stroke-width="2.0" stroke-opacity="0.401"/>
      <line x1="361.4" y1="497.0" x2="309.9" y2="521.3" stroke="#d8dde6" stroke-width="2.0" stroke-opacity="0.754"/>
      <line x1="361.4" y1="497.0" x2="283.8" y2="438.2" stroke="#d8dde6" stroke-width="2.0" stroke-opacity="0.529"/>
      <line x1="361.4" y1="497.0" x2="284.3" y2="402.1" stroke="#d8dde6" stroke-width="2.0" stroke-opacity="0.391"/>
      <line x1="361.4" y1="497.0" x2="380.0" y2="539.1" stroke="#d8dde6" stroke-width="2.0" stroke-opacity="0.815"/>
      <line x1="361.4" y1="497.0" x2="391.3" y2="516.5" stroke="#d8dde6" stroke-width="2.0" stroke-opacity="0.872"/>
      <line x1="361.4" y1="497.0" x2="443.3" y2="413.1" stroke="#d8dde6" stroke-width="2.0" stroke-opacity="0.419"/>
      <line x1="361.4" y1="497.0" x2="318.8" y2="459.6" stroke="#d8dde6" stroke-width="2.0" stroke-opacity="0.755"/>
      <line x1="361.4" y1="497.0" x2="418.6" y2="444.1" stroke="#d8dde6" stroke-width="2.0" stroke-opacity="0.637"/>
      <line x1="361.4" y1="497.0" x2="285.3" y2="478.0" stroke="#d8dde6" stroke-width="2.0" stroke-opacity="0.634"/>
      <line x1="442.8" y1="344.8" x2="509.6" y2="446.7" stroke="#d8dde6" stroke-width="2.0" stroke-opacity="0.393"/>
      <line x1="442.8" y1="344.8" x2="462.8" y2="390.9" stroke="#d8dde6" stroke-width="2.0" stroke-opacity="0.791"/>
      <line x1="442.8" y1="344.8" x2="443.3" y2="413.1" stroke="#d8dde6" stroke-width="2.0" stroke-opacity="0.690"/>
      <line x1="442.8" y1="344.8" x2="418.6" y2="444.1" stroke="#d8dde6" stroke-width="2.0" stroke-opacity="0.502"/>
      <line x1="442.8" y1="344.8" x2="404.8" y2="326.8" stroke="#d8dde6" stroke-width="2.0" stroke-opacity="0.836"/>
      <line x1="442.8" y1="344.8" x2="325.5" y2="309.9" stroke="#d8dde6" stroke-width="2.0" stroke-opacity="0.390"/>
      <line x1="442.8" y1="344.8" x2="445.9" y2="246.0" stroke="#d8dde6" stroke-width="2.0" stroke-opacity="0.521"/>
      <line x1="442.8" y1="344.8" x2="383.3" y2="235.3" stroke="#d8dde6" stroke-width="2.0" stroke-opacity="0.378"/>
      <line x1="36.9" y1="273.1" x2="-21.8" y2="324.0" stroke="#d8dde6" stroke-width="2.0" stroke-opacity="0.638"/>
      <line x1="36.9" y1="273.1" x2="101.4" y2="304.1" stroke="#d8dde6" stroke-width="2.0" stroke-opacity="0.673"/>
      <line x1="36.9" y1="273.1" x2="137.4" y2="271.6" stroke="#d8dde6" stroke-width="2.0" stroke-opacity="0.512"/>
      <line x1="36.9" y1="273.1" x2="62.9" y2="366.6" stroke="#d8dde6" stroke-width="2.0" stroke-opacity="0.531"/>
      <line x1="479.7" y1="519.4" x2="509.6" y2="446.7" stroke="#d8dde6" stroke-width="2.0" stroke-opacity="0.633"/>
      <line x1="479.7" y1="519.4" x2="380.0" y2="539.1" stroke="#d8dde6" stroke-width="2.0" stroke-opacity="0.506"/>
      <line x1="479.7" y1="519.4" x2="462.8" y2="390.9" stroke="#d8dde6" stroke-width="2.0" stroke-opacity="0.350"/>
      <line x1="479.7" y1="519.4" x2="391.3" y2="516.5" stroke="#d8dde6" stroke-width="2.0" stroke-opacity="0.578"/>
      <line x1="479.7" y1="519.4" x2="443.3" y2="413.1" stroke="#d8dde6" stroke-width="2.0" stroke-opacity="0.446"/>
      <line x1="479.7" y1="519.4" x2="534.0" y2="451.1" stroke="#d8dde6" stroke-width="2.0" stroke-opacity="0.585"/>
      <line x1="479.7" y1="519.4" x2="418.6" y2="444.1" stroke="#d8dde6" stroke-width="2.0" stroke-opacity="0.531"/>
      <line x1="309.9" y1="521.3" x2="283.8" y2="438.2" stroke="#d8dde6" stroke-width="2.0" stroke-opacity="0.586"/>
      <line x1="309.9" y1="521.3" x2="284.3" y2="402.1" stroke="#d8dde6" stroke-width="2.0" stroke-opacity="0.392"/>
      <line x1="309.9" y1="521.3" x2="380.0" y2="539.1" stroke="#d8dde6" stroke-width="2.0" stroke-opacity="0.668"/>
      <line x1="309.9" y1="521.3" x2="391.3" y2="516.5" stroke="#d8dde6" stroke-width="2.0" stroke-opacity="0.617"/>
      <line x1="309.9" y1="521.3" x2="201.1" y2="527.5" stroke="#d8dde6" stroke-width="2.0" stroke-opacity="0.465"/>
      <line x1="309.9" y1="521.3" x2="318.8" y2="459.6" stroke="#d8dde6" stroke-width="2.0" stroke-opacity="0.724"/>
      <line x1="309.9" y1="521.3" x2="418.6" y2="444.1" stroke="#d8dde6" stroke-width="2.0" stroke-opacity="0.329"/>
      <line x1="309.9" y1="521.3" x2="285.3" y2="478.0" stroke="#d8dde6" stroke-width="2.0" stroke-opacity="0.793"/>
      <line x1="283.8" y1="438.2" x2="284.3" y2="402.1" stroke="#d8dde6" stroke-width="2.0" stroke-opacity="0.869"/>
      <line x1="283.8" y1="438.2" x2="216.0" y2="337.4" stroke="#d8dde6" stroke-width="2.0" stroke-opacity="0.395"/>
      <line x1="283.8" y1="438.2" x2="391.3" y2="516.5" stroke="#d8dde6" stroke-width="2.0" stroke-opacity="0.331"/>
      <line x1="283.8" y1="438.2" x2="255.4" y2="388.9" stroke="#d8dde6" stroke-width="2.0" stroke-opacity="0.754"/>
      <line x1="283.8" y1="438.2" x2="175.9" y2="422.8" stroke="#d8dde6" stroke-width="2.0" stroke-opacity="0.465"/>
      <line x1="283.8" y1="438.2" x2="174.2" y2="496.4" stroke="#d8dde6" stroke-width="2.0" stroke-opacity="0.380"/>
      <line x1="283.8" y1="438.2" x2="201.1" y2="527.5" stroke="#d8dde6" stroke-width="2.0" stroke-opacity="0.394"/>
      <line x1="283.8" y1="438.2" x2="219.9" y2="369.1" stroke="#d8dde6" stroke-width="2.0" stroke-opacity="0.547"/>
      <line x1="283.8" y1="438.2" x2="318.8" y2="459.6" stroke="#d8dde6" stroke-width="2.0" stroke-opacity="0.842"/>
      <line x1="283.8" y1="438.2" x2="418.6" y2="444.1" stroke="#d8dde6" stroke-width="2.0" stroke-opacity="0.321"/>
      <line x1="283.8" y1="438.2" x2="325.5" y2="309.9" stroke="#d8dde6" stroke-width="2.0" stroke-opacity="0.320"/>
      <line x1="283.8" y1="438.2" x2="285.3" y2="478.0" stroke="#d8dde6" stroke-width="2.0" stroke-opacity="0.849"/>
      <line x1="265.2" y1="157.6" x2="285.6" y2="148.7" stroke="#d8dde6" stroke-width="2.0" stroke-opacity="0.946"/>
      <line x1="265.2" y1="157.6" x2="196.6" y2="90.5" stroke="#d8dde6" stroke-width="2.0" stroke-opacity="0.537"/>
      <line x1="265.2" y1="157.6" x2="287.4" y2="243.2" stroke="#d8dde6" stroke-width="2.0" stroke-opacity="0.579"/>
      <line x1="265.2" y1="157.6" x2="243.1" y2="67.7" stroke="#d8dde6" stroke-width="2.0" stroke-opacity="0.556"/>
      <line x1="265.2" y1="157.6" x2="176.7" y2="242.8" stroke="#d8dde6" stroke-width="2.0" stroke-opacity="0.388"/>
      <line x1="265.2" y1="157.6" x2="219.6" y2="163.7" stroke="#d8dde6" stroke-width="2.0" stroke-opacity="0.814"/>
      <line x1="265.2" y1="157.6" x2="151.6" y2="118.5" stroke="#d8dde6" stroke-width="2.0" stroke-opacity="0.402"/>
      <line x1="265.2" y1="157.6" x2="278.0" y2="193.7" stroke="#d8dde6" stroke-width="2.0" stroke-opacity="0.857"/>
      <line x1="284.3" y1="402.1" x2="216.0" y2="337.4" stroke="#d8dde6" stroke-width="2.0" stroke-opacity="0.547"/>
      <line x1="284.3" y1="402.1" x2="260.0" y2="294.3" stroke="#d8dde6" stroke-width="2.0" stroke-opacity="0.456"/>
      <line x1="284.3" y1="402.1" x2="255.4" y2="388.9" stroke="#d8dde6" stroke-width="2.0" stroke-opacity="0.894"/>
      <line x1="284.3" y1="402.1" x2="175.9" y2="422.8" stroke="#d8dde6" stroke-width="2.0" stroke-opacity="0.457"/>
      <line x1="284.3" y1="402.1" x2="219.9" y2="369.1" stroke="#d8dde6" stroke-width="2.0" stroke-opacity="0.668"/>
      <line x1="284.3" y1="402.1" x2="318.8" y2="459.6" stroke="#d8dde6" stroke-width="2.0" stroke-opacity="0.697"/>
      <line x1="284.3" y1="402.1" x2="325.5" y2="309.9" stroke="#d8dde6" stroke-width="2.0" stroke-opacity="0.509"/>
      <line x1="284.3" y1="402.1" x2="285.3" y2="478.0" stroke="#d8dde6" stroke-width="2.0" stroke-opacity="0.649"/>
      <line x1="216.0" y1="337.4" x2="260.0" y2="294.3" stroke="#d8dde6" stroke-width="2.0" stroke-opacity="0.728"/>
      <line x1="216.0" y1="337.4" x2="101.4" y2="304.1" stroke="#d8dde6" stroke-width="2.0" stroke-opacity="0.407"/>
      <line x1="216.0" y1="337.4" x2="287.4" y2="243.2" stroke="#d8dde6" stroke-width="2.0" stroke-opacity="0.413"/>
      <line x1="216.0" y1="337.4" x2="255.4" y2="388.9" stroke="#d8dde6" stroke-width="2.0" stroke-opacity="0.710"/>
      <line x1="216.0" y1="337.4" x2="175.9" y2="422.8" stroke="#d8dde6" stroke-width="2.0" stroke-opacity="0.546"/>
      <line x1="216.0" y1="337.4" x2="137.4" y2="271.6" stroke="#d8dde6" stroke-width="2.0" stroke-opacity="0.501"/>
      <line x1="216.0" y1="337.4" x2="176.7" y2="242.8" stroke="#d8dde6" stroke-width="2.0" stroke-opacity="0.501"/>
      <line x1="216.0" y1="337.4" x2="219.9" y2="369.1" stroke="#d8dde6" stroke-width="2.0" stroke-opacity="0.893"/>
      <line x1="216.0" y1="337.4" x2="325.5" y2="309.9" stroke="#d8dde6" stroke-width="2.0" stroke-opacity="0.442"/>
      <line x1="285.6" y1="148.7" x2="196.6" y2="90.5" stroke="#d8dde6" stroke-width="2.0" stroke-opacity="0.479"/>
      <line x1="285.6" y1="148.7" x2="287.4" y2="243.2" stroke="#d8dde6" stroke-width="2.0" stroke-opacity="0.545"/>
      <line x1="285.6" y1="148.7" x2="243.1" y2="67.7" stroke="#d8dde6" stroke-width="2.0" stroke-opacity="0.562"/>
      <line x1="285.6" y1="148.7" x2="219.6" y2="163.7" stroke="#d8dde6" stroke-width="2.0" stroke-opacity="0.694"/>
      <line x1="285.6" y1="148.7" x2="278.0" y2="193.7" stroke="#d8dde6" stroke-width="2.0" stroke-opacity="0.816"/>
      <line x1="285.6" y1="148.7" x2="383.3" y2="235.3" stroke="#d8dde6" stroke-width="2.0" stroke-opacity="0.344"/>
      <line x1="509.6" y1="446.7" x2="462.8" y2="390.9" stroke="#d8dde6" stroke-width="2.0" stroke-opacity="0.666"/>
      <line x1="509.6" y1="446.7" x2="443.3" y2="413.1" stroke="#d8dde6" stroke-width="2.0" stroke-opacity="0.657"/>
      <line x1="509.6" y1="446.7" x2="534.0" y2="451.1" stroke="#d8dde6" stroke-width="2.0" stroke-opacity="0.932"/>
      <line x1="509.6" y1="446.7" x2="418.6" y2="444.1" stroke="#d8dde6" stroke-width="2.0" stroke-opacity="0.564"/>
      <line x1="-21.8" y1="324.0" x2="101.4" y2="304.1" stroke="#d8dde6" stroke-width="2.0" stroke-opacity="0.377"/>
      <line x1="-21.8" y1="324.0" x2="62.9" y2="366.6" stroke="#d8dde6" stroke-width="2.0" stroke-opacity="0.544"/>
      <line x1="380.0" y1="539.1" x2="391.3" y2="516.5" stroke="#d8dde6" stroke-width="2.0" stroke-opacity="0.930"/>
      <line x1="380.0" y1="539.1" x2="318.8" y2="459.6" stroke="#d8dde6" stroke-width="2.0" stroke-opacity="0.513"/>
      <line x1="380.0" y1="539.1" x2="418.6" y2="444.1" stroke="#d8dde6" stroke-width="2.0" stroke-opacity="0.501"/>
      <line x1="380.0" y1="539.1" x2="285.3" y2="478.0" stroke="#d8dde6" stroke-width="2.0" stroke-opacity="0.444"/>
      <line x1="260.0" y1="294.3" x2="287.4" y2="243.2" stroke="#d8dde6" stroke-width="2.0" stroke-opacity="0.748"/>
      <line x1="260.0" y1="294.3" x2="255.4" y2="388.9" stroke="#d8dde6" stroke-width="2.0" stroke-opacity="0.544"/>
      <line x1="260.0" y1="294.3" x2="137.4" y2="271.6" stroke="#d8dde6" stroke-width="2.0" stroke-opacity="0.378"/>
      <line x1="260.0" y1="294.3" x2="176.7" y2="242.8" stroke="#d8dde6" stroke-width="2.0" stroke-opacity="0.526"/>
      <line x1="260.0" y1="294.3" x2="219.9" y2="369.1" stroke="#d8dde6" stroke-width="2.0" stroke-opacity="0.598"/>
      <line x1="260.0" y1="294.3" x2="278.0" y2="193.7" stroke="#d8dde6" stroke-width="2.0" stroke-opacity="0.502"/>
      <line x1="260.0" y1="294.3" x2="325.5" y2="309.9" stroke="#d8dde6" stroke-width="2.0" stroke-opacity="0.696"/>
      <line x1="196.6" y1="90.5" x2="73.1" y2="113.4" stroke="#d8dde6" stroke-width="2.0" stroke-opacity="0.372"/>
      <line x1="196.6" y1="90.5" x2="243.1" y2="67.7" stroke="#d8dde6" stroke-width="2.0" stroke-opacity="0.782"/>
      <line x1="196.6" y1="90.5" x2="219.6" y2="163.7" stroke="#d8dde6" stroke-width="2.0" stroke-opacity="0.644"/>
      <line x1="196.6" y1="90.5" x2="139.0" y2="21.8" stroke="#d8dde6" stroke-width="2.0" stroke-opacity="0.572"/>
      <line x1="196.6" y1="90.5" x2="151.6" y2="118.5" stroke="#d8dde6" stroke-width="2.0" stroke-opacity="0.775"/>
      <line x1="196.6" y1="90.5" x2="278.0" y2="193.7" stroke="#d8dde6" stroke-width="2.0" stroke-opacity="0.340"/>
      <line x1="462.8" y1="390.9" x2="443.3" y2="413.1" stroke="#d8dde6" stroke-width="2.0" stroke-opacity="0.906"/>
      <line x1="462.8" y1="390.9" x2="534.0" y2="451.1" stroke="#d8dde6" stroke-width="2.0" stroke-opacity="0.552"/>
      <line x1="462.8" y1="390.9" x2="418.6" y2="444.1" stroke="#d8dde6" stroke-width="2.0" stroke-opacity="0.686"/>
      <line x1="462.8" y1="390.9" x2="404.8" y2="326.8" stroke="#d8dde6" stroke-width="2.0" stroke-opacity="0.589"/>
      <line x1="391.3" y1="516.5" x2="443.3" y2="413.1" stroke="#d8dde6" stroke-width="2.0" stroke-opacity="0.427"/>
      <line x1="391.3" y1="516.5" x2="318.8" y2="459.6" stroke="#d8dde6" stroke-width="2.0" stroke-opacity="0.558"/>
      <line x1="391.3" y1="516.5" x2="418.6" y2="444.1" stroke="#d8dde6" stroke-width="2.0" stroke-opacity="0.640"/>
      <line x1="391.3" y1="516.5" x2="285.3" y2="478.0" stroke="#d8dde6" stroke-width="2.0" stroke-opacity="0.444"/>
      <line x1="101.4" y1="304.1" x2="137.4" y2="271.6" stroke="#d8dde6" stroke-width="2.0" stroke-opacity="0.801"/>
      <line x1="101.4" y1="304.1" x2="176.7" y2="242.8" stroke="#d8dde6" stroke-width="2.0" stroke-opacity="0.531"/>
      <line x1="101.4" y1="304.1" x2="62.9" y2="366.6" stroke="#d8dde6" stroke-width="2.0" stroke-opacity="0.662"/>
      <line x1="287.4" y1="243.2" x2="176.7" y2="242.8" stroke="#d8dde6" stroke-width="2.0" stroke-opacity="0.455"/>
      <line x1="287.4" y1="243.2" x2="219.6" y2="163.7" stroke="#d8dde6" stroke-width="2.0" stroke-opacity="0.489"/>
      <line x1="287.4" y1="243.2" x2="278.0" y2="193.7" stroke="#d8dde6" stroke-width="2.0" stroke-opacity="0.790"/>
      <line x1="287.4" y1="243.2" x2="325.5" y2="309.9" stroke="#d8dde6" stroke-width="2.0" stroke-opacity="0.644"/>
      <line x1="287.4" y1="243.2" x2="383.3" y2="235.3" stroke="#d8dde6" stroke-width="2.0" stroke-opacity="0.535"/>
      <line x1="73.1" y1="113.4" x2="69.0" y2="-16.2" stroke="#d8dde6" stroke-width="2.0" stroke-opacity="0.350"/>
      <line x1="73.1" y1="113.4" x2="4.4" y2="69.8" stroke="#d8dde6" stroke-width="2.0" stroke-opacity="0.618"/>
      <line x1="73.1" y1="113.4" x2="15.8" y2="114.3" stroke="#d8dde6" stroke-width="2.0" stroke-opacity="0.752"/>
      <line x1="73.1" y1="113.4" x2="139.0" y2="21.8" stroke="#d8dde6" stroke-width="2.0" stroke-opacity="0.443"/>
      <line x1="73.1" y1="113.4" x2="151.6" y2="118.5" stroke="#d8dde6" stroke-width="2.0" stroke-opacity="0.633"/>
      <line x1="73.1" y1="113.4" x2="57.7" y2="28.2" stroke="#d8dde6" stroke-width="2.0" stroke-opacity="0.589"/>
      <line x1="243.1" y1="67.7" x2="219.6" y2="163.7" stroke="#d8dde6" stroke-width="2.0" stroke-opacity="0.521"/>
      <line x1="243.1" y1="67.7" x2="139.0" y2="21.8" stroke="#d8dde6" stroke-width="2.0" stroke-opacity="0.437"/>
      <line x1="243.1" y1="67.7" x2="151.6" y2="118.5" stroke="#d8dde6" stroke-width="2.0" stroke-opacity="0.488"/>
      <line x1="243.1" y1="67.7" x2="278.0" y2="193.7" stroke="#d8dde6" stroke-width="2.0" stroke-opacity="0.344"/>
      <line x1="69.0" y1="-16.2" x2="4.4" y2="69.8" stroke="#d8dde6" stroke-width="2.0" stroke-opacity="0.472"/>
      <line x1="69.0" y1="-16.2" x2="139.0" y2="21.8" stroke="#d8dde6" stroke-width="2.0" stroke-opacity="0.628"/>
      <line x1="69.0" y1="-16.2" x2="57.7" y2="28.2" stroke="#d8dde6" stroke-width="2.0" stroke-opacity="0.815"/>
      <line x1="4.4" y1="69.8" x2="15.8" y2="114.3" stroke="#d8dde6" stroke-width="2.0" stroke-opacity="0.815"/>
      <line x1="4.4" y1="69.8" x2="57.7" y2="28.2" stroke="#d8dde6" stroke-width="2.0" stroke-opacity="0.694"/>
      <line x1="255.4" y1="388.9" x2="175.9" y2="422.8" stroke="#d8dde6" stroke-width="2.0" stroke-opacity="0.590"/>
      <line x1="255.4" y1="388.9" x2="174.2" y2="496.4" stroke="#d8dde6" stroke-width="2.0" stroke-opacity="0.321"/>
      <line x1="255.4" y1="388.9" x2="219.9" y2="369.1" stroke="#d8dde6" stroke-width="2.0" stroke-opacity="0.844"/>
      <line x1="255.4" y1="388.9" x2="318.8" y2="459.6" stroke="#d8dde6" stroke-width="2.0" stroke-opacity="0.542"/>
      <line x1="255.4" y1="388.9" x2="325.5" y2="309.9" stroke="#d8dde6" stroke-width="2.0" stroke-opacity="0.483"/>
      <line x1="255.4" y1="388.9" x2="285.3" y2="478.0" stroke="#d8dde6" stroke-width="2.0" stroke-opacity="0.548"/>
      <line x1="175.9" y1="422.8" x2="174.2" y2="496.4" stroke="#d8dde6" stroke-width="2.0" stroke-opacity="0.661"/>
      <line x1="175.9" y1="422.8" x2="201.1" y2="527.5" stroke="#d8dde6" stroke-width="2.0" stroke-opacity="0.472"/>
      <line x1="175.9" y1="422.8" x2="137.7" y2="475.8" stroke="#d8dde6" stroke-width="2.0" stroke-opacity="0.707"/>
      <line x1="175.9" y1="422.8" x2="219.9" y2="369.1" stroke="#d8dde6" stroke-width="2.0" stroke-opacity="0.685"/>
      <line x1="175.9" y1="422.8" x2="62.9" y2="366.6" stroke="#d8dde6" stroke-width="2.0" stroke-opacity="0.369"/>
      <line x1="175.9" y1="422.8" x2="99.6" y2="529.8" stroke="#d8dde6" stroke-width="2.0" stroke-opacity="0.339"/>
      <line x1="175.9" y1="422.8" x2="285.3" y2="478.0" stroke="#d8dde6" stroke-width="2.0" stroke-opacity="0.389"/>
      <line x1="426.6" y1="205.8" x2="404.8" y2="326.8" stroke="#d8dde6" stroke-width="2.0" stroke-opacity="0.387"/>
      <line x1="426.6" y1="205.8" x2="445.9" y2="246.0" stroke="#d8dde6" stroke-width="2.0" stroke-opacity="0.822"/>
      <line x1="426.6" y1="205.8" x2="383.3" y2="235.3" stroke="#d8dde6" stroke-width="2.0" stroke-opacity="0.778"/>
      <line x1="137.4" y1="271.6" x2="176.7" y2="242.8" stroke="#d8dde6" stroke-width="2.0" stroke-opacity="0.799"/>
      <line x1="137.4" y1="271.6" x2="219.9" y2="369.1" stroke="#d8dde6" stroke-width="2.0" stroke-opacity="0.361"/>
      <line x1="137.4" y1="271.6" x2="62.9" y2="366.6" stroke="#d8dde6" stroke-width="2.0" stroke-opacity="0.399"/>
      <line x1="15.8" y1="114.3" x2="57.7" y2="28.2" stroke="#d8dde6" stroke-width="2.0" stroke-opacity="0.538"/>
      <line x1="443.3" y1="413.1" x2="534.0" y2="451.1" stroke="#d8dde6" stroke-width="2.0" stroke-opacity="0.524"/>
      <line x1="443.3" y1="413.1" x2="318.8" y2="459.6" stroke="#d8dde6" stroke-width="2.0" stroke-opacity="0.332"/>
      <line x1="443.3" y1="413.1" x2="418.6" y2="444.1" stroke="#d8dde6" stroke-width="2.0" stroke-opacity="0.850"/>
      <line x1="443.3" y1="413.1" x2="404.8" y2="326.8" stroke="#d8dde6" stroke-width="2.0" stroke-opacity="0.545"/>
      <line x1="174.2" y1="496.4" x2="201.1" y2="527.5" stroke="#d8dde6" stroke-width="2.0" stroke-opacity="0.842"/>
      <line x1="174.2" y1="496.4" x2="137.7" y2="475.8" stroke="#d8dde6" stroke-width="2.0" stroke-opacity="0.837"/>
      <line x1="174.2" y1="496.4" x2="99.6" y2="529.8" stroke="#d8dde6" stroke-width="2.0" stroke-opacity="0.616"/>
      <line x1="174.2" y1="496.4" x2="285.3" y2="478.0" stroke="#d8dde6" stroke-width="2.0" stroke-opacity="0.444"/>
      <line x1="176.7" y1="242.8" x2="219.6" y2="163.7" stroke="#d8dde6" stroke-width="2.0" stroke-opacity="0.570"/>
      <line x1="176.7" y1="242.8" x2="219.9" y2="369.1" stroke="#d8dde6" stroke-width="2.0" stroke-opacity="0.329"/>
      <line x1="176.7" y1="242.8" x2="151.6" y2="118.5" stroke="#d8dde6" stroke-width="2.0" stroke-opacity="0.365"/>
      <line x1="176.7" y1="242.8" x2="278.0" y2="193.7" stroke="#d8dde6" stroke-width="2.0" stroke-opacity="0.445"/>
      <line x1="201.1" y1="527.5" x2="137.7" y2="475.8" stroke="#d8dde6" stroke-width="2.0" stroke-opacity="0.616"/>
      <line x1="201.1" y1="527.5" x2="99.6" y2="529.8" stroke="#d8dde6" stroke-width="2.0" stroke-opacity="0.506"/>
      <line x1="201.1" y1="527.5" x2="285.3" y2="478.0" stroke="#d8dde6" stroke-width="2.0" stroke-opacity="0.527"/>
      <line x1="219.6" y1="163.7" x2="151.6" y2="118.5" stroke="#d8dde6" stroke-width="2.0" stroke-opacity="0.617"/>
      <line x1="219.6" y1="163.7" x2="278.0" y2="193.7" stroke="#d8dde6" stroke-width="2.0" stroke-opacity="0.705"/>
      <line x1="137.7" y1="475.8" x2="219.9" y2="369.1" stroke="#d8dde6" stroke-width="2.0" stroke-opacity="0.322"/>
      <line x1="137.7" y1="475.8" x2="62.9" y2="366.6" stroke="#d8dde6" stroke-width="2.0" stroke-opacity="0.335"/>
      <line x1="137.7" y1="475.8" x2="99.6" y2="529.8" stroke="#d8dde6" stroke-width="2.0" stroke-opacity="0.702"/>
      <line x1="534.0" y1="451.1" x2="418.6" y2="444.1" stroke="#d8dde6" stroke-width="2.0" stroke-opacity="0.427"/>
      <line x1="219.9" y1="369.1" x2="318.8" y2="459.6" stroke="#d8dde6" stroke-width="2.0" stroke-opacity="0.325"/>
      <line x1="219.9" y1="369.1" x2="325.5" y2="309.9" stroke="#d8dde6" stroke-width="2.0" stroke-opacity="0.397"/>
      <line x1="219.9" y1="369.1" x2="285.3" y2="478.0" stroke="#d8dde6" stroke-width="2.0" stroke-opacity="0.364"/>
      <line x1="318.8" y1="459.6" x2="418.6" y2="444.1" stroke="#d8dde6" stroke-width="2.0" stroke-opacity="0.509"/>
      <line x1="318.8" y1="459.6" x2="285.3" y2="478.0" stroke="#d8dde6" stroke-width="2.0" stroke-opacity="0.858"/>
      <line x1="139.0" y1="21.8" x2="151.6" y2="118.5" stroke="#d8dde6" stroke-width="2.0" stroke-opacity="0.528"/>
      <line x1="139.0" y1="21.8" x2="57.7" y2="28.2" stroke="#d8dde6" stroke-width="2.0" stroke-opacity="0.617"/>
      <line x1="151.6" y1="118.5" x2="57.7" y2="28.2" stroke="#d8dde6" stroke-width="2.0" stroke-opacity="0.346"/>
      <line x1="418.6" y1="444.1" x2="404.8" y2="326.8" stroke="#d8dde6" stroke-width="2.0" stroke-opacity="0.414"/>
      <line x1="278.0" y1="193.7" x2="325.5" y2="309.9" stroke="#d8dde6" stroke-width="2.0" stroke-opacity="0.373"/>
      <line x1="278.0" y1="193.7" x2="383.3" y2="235.3" stroke="#d8dde6" stroke-width="2.0" stroke-opacity="0.441"/>
      <line x1="404.8" y1="326.8" x2="325.5" y2="309.9" stroke="#d8dde6" stroke-width="2.0" stroke-opacity="0.620"/>
      <line x1="404.8" y1="326.8" x2="445.9" y2="246.0" stroke="#d8dde6" stroke-width="2.0" stroke-opacity="0.567"/>
      <line x1="404.8" y1="326.8" x2="383.3" y2="235.3" stroke="#d8dde6" stroke-width="2.0" stroke-opacity="0.548"/>
      <line x1="325.5" y1="309.9" x2="383.3" y2="235.3" stroke="#d8dde6" stroke-width="2.0" stroke-opacity="0.546"/>
      <line x1="445.9" y1="246.0" x2="383.3" y2="235.3" stroke="#d8dde6" stroke-width="2.0" stroke-opacity="0.717"/>
      <circle cx="-23.3" cy="5.4" r="3.0" fill="#a3acba"/>
      <circle cx="369.8" cy="268.3" r="5.5" fill="#ff5555" filter="url(#nodeGlow)"/>
      <circle cx="236.7" cy="107.2" r="3.0" fill="#a3acba"/>
      <circle cx="387.5" cy="117.5" r="5.5" fill="#ff5555" filter="url(#nodeGlow)"/>
      <circle cx="407.1" cy="266.5" r="5.5" fill="#ff5555" filter="url(#nodeGlow)"/>
      <circle cx="180.5" cy="137.7" r="3.0" fill="#a3acba"/>
      <circle cx="139.5" cy="529.4" r="5.5" fill="#ff5555" filter="url(#nodeGlow)"/>
      <circle cx="472.1" cy="79.1" r="5.5" fill="#ff5555" filter="url(#nodeGlow)"/>
      <circle cx="58.5" cy="136.4" r="3.0" fill="#a3acba"/>
      <circle cx="405.8" cy="12.6" r="3.0" fill="#a3acba"/>
      <circle cx="286.7" cy="325.6" r="3.0" fill="#a3acba"/>
      <circle cx="522.5" cy="327.1" r="3.0" fill="#a3acba"/>
      <circle cx="443.4" cy="-7.1" r="5.5" fill="#ff5555" filter="url(#nodeGlow)"/>
      <circle cx="174.2" cy="213.3" r="5.5" fill="#ff5555" filter="url(#nodeGlow)"/>
      <circle cx="20.4" cy="409.3" r="5.5" fill="#ff5555" filter="url(#nodeGlow)"/>
      <circle cx="214.1" cy="238.1" r="3.0" fill="#a3acba"/>
      <circle cx="372.3" cy="363.7" r="5.5" fill="#ff5555" filter="url(#nodeGlow)"/>
      <circle cx="173.8" cy="49.4" r="5.5" fill="#ff5555" filter="url(#nodeGlow)"/>
      <circle cx="492.3" cy="154.4" r="5.5" fill="#ff5555" filter="url(#nodeGlow)"/>
      <circle cx="331.6" cy="162.6" r="5.5" fill="#ff5555" filter="url(#nodeGlow)"/>
      <circle cx="361.4" cy="497.0" r="3.0" fill="#a3acba"/>
      <circle cx="442.8" cy="344.8" r="3.0" fill="#a3acba"/>
      <circle cx="36.9" cy="273.1" r="3.0" fill="#a3acba"/>
      <circle cx="479.7" cy="519.4" r="3.0" fill="#a3acba"/>
      <circle cx="309.9" cy="521.3" r="3.0" fill="#a3acba"/>
      <circle cx="283.8" cy="438.2" r="5.5" fill="#ff5555" filter="url(#nodeGlow)"/>
      <circle cx="265.2" cy="157.6" r="3.0" fill="#a3acba"/>
      <circle cx="284.3" cy="402.1" r="3.0" fill="#a3acba"/>
      <circle cx="216.0" cy="337.4" r="3.0" fill="#a3acba"/>
      <circle cx="285.6" cy="148.7" r="5.5" fill="#ff5555" filter="url(#nodeGlow)"/>
      <circle cx="509.6" cy="446.7" r="3.0" fill="#a3acba"/>
      <circle cx="-21.8" cy="324.0" r="3.0" fill="#a3acba"/>
      <circle cx="380.0" cy="539.1" r="5.5" fill="#ff5555" filter="url(#nodeGlow)"/>
      <circle cx="444.8" cy="49.5" r="3.0" fill="#a3acba"/>
      <circle cx="260.0" cy="294.3" r="5.5" fill="#ff5555" filter="url(#nodeGlow)"/>
      <circle cx="196.6" cy="90.5" r="3.0" fill="#a3acba"/>
      <circle cx="462.8" cy="390.9" r="3.0" fill="#a3acba"/>
      <circle cx="391.3" cy="516.5" r="3.0" fill="#a3acba"/>
      <circle cx="101.4" cy="304.1" r="3.0" fill="#a3acba"/>
      <circle cx="287.4" cy="243.2" r="3.0" fill="#a3acba"/>
      <circle cx="73.1" cy="113.4" r="5.5" fill="#ff5555" filter="url(#nodeGlow)"/>
      <circle cx="243.1" cy="67.7" r="5.5" fill="#ff5555" filter="url(#nodeGlow)"/>
      <circle cx="69.0" cy="-16.2" r="5.5" fill="#ff5555" filter="url(#nodeGlow)"/>
      <circle cx="4.4" cy="69.8" r="5.5" fill="#ff5555" filter="url(#nodeGlow)"/>
      <circle cx="255.4" cy="388.9" r="5.5" fill="#ff5555" filter="url(#nodeGlow)"/>
      <circle cx="175.9" cy="422.8" r="3.0" fill="#a3acba"/>
      <circle cx="426.6" cy="205.8" r="3.0" fill="#a3acba"/>
      <circle cx="137.4" cy="271.6" r="3.0" fill="#a3acba"/>
      <circle cx="15.8" cy="114.3" r="3.0" fill="#a3acba"/>
      <circle cx="443.3" cy="413.1" r="5.5" fill="#ff5555" filter="url(#nodeGlow)"/>
      <circle cx="174.2" cy="496.4" r="5.5" fill="#ff5555" filter="url(#nodeGlow)"/>
      <circle cx="176.7" cy="242.8" r="3.0" fill="#a3acba"/>
      <circle cx="201.1" cy="527.5" r="3.0" fill="#a3acba"/>
      <circle cx="219.6" cy="163.7" r="3.0" fill="#a3acba"/>
      <circle cx="137.7" cy="475.8" r="3.0" fill="#a3acba"/>
      <circle cx="534.0" cy="451.1" r="3.0" fill="#a3acba"/>
      <circle cx="219.9" cy="369.1" r="3.0" fill="#a3acba"/>
      <circle cx="62.9" cy="366.6" r="5.5" fill="#ff5555" filter="url(#nodeGlow)"/>
      <circle cx="318.8" cy="459.6" r="5.5" fill="#ff5555" filter="url(#nodeGlow)"/>
      <circle cx="139.0" cy="21.8" r="3.0" fill="#a3acba"/>
      <circle cx="151.6" cy="118.5" r="5.5" fill="#ff5555" filter="url(#nodeGlow)"/>
      <circle cx="418.6" cy="444.1" r="3.0" fill="#a3acba"/>
      <circle cx="99.6" cy="529.8" r="5.5" fill="#ff5555" filter="url(#nodeGlow)"/>
      <circle cx="278.0" cy="193.7" r="3.0" fill="#a3acba"/>
      <circle cx="404.8" cy="326.8" r="3.0" fill="#a3acba"/>
      <circle cx="325.5" cy="309.9" r="5.5" fill="#ff5555" filter="url(#nodeGlow)"/>
      <circle cx="445.9" cy="246.0" r="5.5" fill="#ff5555" filter="url(#nodeGlow)"/>
      <circle cx="383.3" cy="235.3" r="3.0" fill="#a3acba"/>
      <circle cx="285.3" cy="478.0" r="3.0" fill="#a3acba"/>
      <circle cx="57.7" cy="28.2" r="5.5" fill="#ff5555" filter="url(#nodeGlow)"/>
    </g>
    <text x="256" y="256"
          text-anchor="middle" dominant-baseline="central"
          font-family='system-ui, -apple-system, "Segoe UI", Roboto, "Helvetica Neue", Arial, sans-serif' font-size="200" font-weight="700"
          fill="#5fffa0" filter="url(#glow)">{Mx}</text>
  </g>
</svg>
